<?xml version="1.0" ?><!DOCTYPE svg  PUBLIC '-//W3C//DTD SVG 1.1//EN'  'http://www.w3.org/Graphics/SVG/1.1/DTD/svg11.dtd'><svg enable-background="new 0 0 512 512" height="512px" id="PSD_Extention_1_" version="1.1" viewBox="0 0 512 512" width="512px" xml:space="preserve" xmlns="http://www.w3.org/2000/svg" xmlns:xlink="http://www.w3.org/1999/xlink"><g id="Rectangle_2"><g><polygon fill="#2B236E" points="386,25 134,25 134,485 481,485 481,120.604   "/></g></g><g id="Rectangle_4"><g><polygon fill="#95C9FE" points="387,25 387,120 481,120   "/></g></g><g id="Shadow" opacity="0.302"><g><polygon points="403,286 340,301 307.5,256 242,245 213,251 210,329 203,406 331.461,485 481,485 481,343.285   "/></g></g><g id="Ps_1_"><g><path d="M202.047,237.836c11.183-2.039,26.688-3.567,47.783-3.567c22.875,0,39.649,4.841,50.579,14.015    c10.166,8.409,16.774,21.915,16.774,37.969c0,16.309-5.083,29.813-14.741,38.987c-12.454,12.486-32.025,18.348-54.138,18.348    c-5.846,0-11.183-0.255-15.25-1.02v64.725h-31.008V237.836z M233.055,317.851c3.812,1.02,8.896,1.274,15.25,1.274    c23.384,0,37.617-11.468,37.617-31.599c0-19.111-13.217-29.304-34.821-29.304c-8.642,0-14.742,0.764-18.045,1.528V317.851z" fill="#7EBCF9"/><path d="M331.162,378.498c7.116,4.332,20.587,8.919,31.771,8.919c13.725,0,19.825-5.606,19.825-13.761    c0-8.409-5.083-12.741-20.333-18.092c-24.146-8.409-34.313-21.66-34.059-36.185c0-21.915,18.046-38.988,46.767-38.988    c13.725,0,25.671,3.567,32.787,7.39l-6.1,22.17c-5.338-3.058-15.25-7.135-26.18-7.135c-11.183,0-17.283,5.351-17.283,12.995    c0,7.899,5.846,11.723,21.604,17.328c22.366,8.154,32.787,19.621,33.041,37.969c0,22.424-17.537,38.732-50.324,38.732    c-14.996,0-28.467-3.567-37.616-8.663L331.162,378.498z" fill="#7EBCF9"/></g></g><g id="Rectangle_1"><g><rect fill="#95C9FE" height="108" width="326" x="30" y="48"/></g></g><g id="PSD"><g><path d="M131.192,67.566c4.409-0.817,10.601-1.43,19.325-1.43c8.818,0,15.104,1.838,19.325,5.514    c4.034,3.472,6.754,9.19,6.754,15.929c0,6.74-2.064,12.458-5.816,16.338c-4.878,5.004-12.102,7.25-20.544,7.25    c-1.876,0-3.565-0.102-4.878-0.306v24.609h-14.166V67.566z M145.357,98.813c1.22,0.307,2.721,0.409,4.784,0.409    c7.599,0,12.29-4.187,12.29-11.232c0-6.331-4.034-10.109-11.164-10.109c-2.908,0-4.878,0.306-5.91,0.612V98.813z" fill="#2B236E"/><path d="M180.534,119.439c3.846,2.145,9.756,4.289,15.854,4.289c6.567,0,10.038-2.961,10.038-7.455    c0-4.289-3.002-6.739-10.601-9.7c-10.507-3.982-17.355-10.313-17.355-20.32c0-11.743,9.006-20.729,23.922-20.729    c7.129,0,12.383,1.634,16.135,3.472l-3.189,12.56c-2.533-1.328-7.036-3.268-13.227-3.268c-6.192,0-9.194,3.063-9.194,6.637    c0,4.391,3.565,6.331,11.727,9.701c11.164,4.493,16.417,10.824,16.417,20.524c0,11.539-8.162,21.341-25.517,21.341    c-7.224,0-14.353-2.042-17.918-4.187L180.534,119.439z" fill="#2B236E"/><path d="M225.092,67.566c5.253-0.919,12.102-1.43,19.325-1.43c12.008,0,19.794,2.349,25.892,7.352    c6.566,5.31,10.694,13.785,10.694,25.937c0,13.172-4.409,22.26-10.507,27.876c-6.661,6.024-16.792,8.884-29.175,8.884    c-7.411,0-12.665-0.511-16.229-1.021V67.566z M239.445,123.728c1.22,0.306,3.19,0.306,4.972,0.306    c12.946,0.102,21.389-7.658,21.389-24.099c0.094-14.295-7.599-21.852-19.888-21.852c-3.189,0-5.253,0.306-6.473,0.612V123.728z" fill="#2B236E"/></g></g></svg>