<svg xmlns="http://www.w3.org/2000/svg" fill='#9caec0' viewBox="0 0 35 35"><path fill='#9caec0' d="M6 17.5A1.5 1.5 0 0 0 4.5 16h-3a1.5 1.5 0 0 0 0 3h3A1.5 1.5 0 0 0 6 17.5zM7.5 26c-.414 0-.789.168-1.061.439l-2 2A1.499 1.499 0 0 0 5.5 31c.414 0 .789-.168 1.06-.44l2-2A1.5 1.5 0 0 0 7.5 26zm10-20A1.5 1.5 0 0 0 19 4.5v-3a1.5 1.5 0 1 0-3 0v3A1.5 1.5 0 0 0 17.5 6zm10 3c.414 0 .789-.168 1.06-.439l2-2a1.5 1.5 0 1 0-2.121-2.121l-2 2A1.5 1.5 0 0 0 27.5 9zM6.439 8.561A1.499 1.499 0 0 0 9 7.5c0-.414-.168-.789-.439-1.061l-2-2A1.499 1.499 0 0 0 4 5.5c0 .414.168.789.439 1.06l2 2.001zM33.5 16h-3a1.5 1.5 0 0 0 0 3h3a1.5 1.5 0 0 0 0-3zm-4.939 10.439A1.499 1.499 0 0 0 26 27.5c0 .414.168.789.439 1.06l2 2a1.5 1.5 0 0 0 2.122-2.121l-2-2zM17.5 29a1.5 1.5 0 0 0-1.5 1.5v3a1.5 1.5 0 1 0 3 0v-3a1.5 1.5 0 0 0-1.5-1.5zm0-22C11.71 7 7 11.71 7 17.5S11.71 28 17.5 28 28 23.29 28 17.5 23.29 7 17.5 7zm0 18c-4.136 0-7.5-3.364-7.5-7.5s3.364-7.5 7.5-7.5 7.5 3.364 7.5 7.5-3.364 7.5-7.5 7.5z" fill-rule="evenodd" clip-rule="evenodd"/></svg>