<svg width="181" height="181" fill="none" xmlns="http://www.w3.org/2000/svg"><g clip-path="url(#a)"><path d="M0 0h181v181H0V0Z" fill="#475C49"/><path d="m110 95 7 9v3h2l8 3 4 2 3 2 3 1 14 7c17 8 22 14 29 31v27h-72l-5-21-7-14-1-7-2-8-11-1-2 3 3 1c3 3 5 6 5 10 0 5-1 8-3 12-2 3-2 7-3 10l-1 2-2 13H4c5-20 10-34 27-47l2-2 18-12 3-2 3-2 3-2 4-1 1-5 6 7c4 6 10 11 18 12 8-1 15-10 20-16 2-4 2-6 2-10l-1-5Z" fill="#9D9D92"/><path d="M60 5h5l-5 6h-2v2l9-1c-3 3-3 3-5 3l-1 4h-2l-1 3h-2l-1 3-2 2-2 7-1 3h-2l1 3c2 5 1 11 1 16s0 8 3 13l1 4c1 4 1 4 4 6l-1-3c-3-7-3-15-3-22h3v4h2v2c0 6 0 9 3 14l1 9h2l1 2 1 3 1 3 4 6v2h-2v-2l-4-1v3H37l-7-1v-6h2v-4c-6-2-8-2-14 0v3c0 4 0 5-2 8-5 2-11 1-16 1V11c28 0 28 0 32 2l2-1 5 2 2 1 4 3 5-1 2-5h2V9l6-2V5Z" fill="#8C9F95"/><path d="M74 29h22l8 1v2h2l4 19 1 8h2v-6l4-2 1 5v5l-1 2c0 5-1 9-3 13-4 7-4 16-3 23l1 1c0 6-1 8-4 12l-6 6-2 2c-4 4-6 6-11 7-7 0-13-6-18-11-4-4-7-8-7-13l2-7 4 1v2h2l-3-3c-3-4-4-8-4-13h-2l-1-2-3-10c-2-4-1-8 0-13h-2v-4h-3l1 8v2l3 15-4-2-2-5-2-7c-1-2-2-4-1-6V46l-1-4h2c3 0 3 0 4-2l3-4 4-6 13-1Z" fill="#846B4A"/><path d="M0 0h133v1l-10 1h-3l-16-1 1 4h-5v2h2l1 2 3 4 2 4h3c4 9 9 20 6 30l-2 4-2 8h-2l-3-14-2-13h-2v-2l-44 2-4 6 2 1-3 1-1 2-2 1-4-1v-5h2v-2l1-3v-3l8-10h2v-2l3-4h-6v-2l6-5-4-1v2l-6 2v3h-2v2c-1 3-1 3-4 5l-6-2-9-4-2 1-3-2h-6l-4-1H0V0Z" fill="#3D4B37"/><path d="M74 29h22l8 1v2h2c2 7 3 13 3 20l-3-1-1 2h-8l-1 1 6 2v3h-2v2h-4v7h-6l2 9h-4c-3 0-3 0-5 2l-3 1 4 1 1 4 2-1 1-4h4l2 4 3-1 2 4-7 1-3-1h-2v2h10v2c-7 2-13 2-20 2l2-2-6-1 1-5 2-1v-4l1-4-5-1-1-5h-2l-1 2-6 1c-2-3-3-5-2-9l1-2-1-2 1-5h-3V40h-2v3c1 3 1 3-1 5-2 5-1 8-1 13l1 3 3 15-4-2-2-5-2-7c-1-2-2-4-1-6V46l-1-4h2c3 0 3 0 4-2l3-4 4-6 13-1Z" fill="#715D40"/><path d="m22 87 6 1 1 11 1 3h11l-4 4h-2v3l-2 19h-6l-1 7H7l-7-1v-34l16-1 1-4h2v-3l3-5Z" fill="#151B1E"/><path d="M60 5h5l-5 6h-2v2l9-1c-3 3-3 3-5 3l-1 4h-2l-1 3h-2l-1 3-2 2-2 7-1 3h-2l-1 4v-8h2l1-8h-2l-1 2-1-2-3 9H0V11h25l7 2 2-1 5 2 2 1 4 3 5-1 2-5h2V9l6-2V5Z" fill="#546653"/><path d="m76 10 6 1-1 2-5 1-2 1h-2l6-1h3l5-2 9 1 11 2c3 1 5 1 7 4 3 9 7 19 4 28l-2 4-2 8h-2l-3-14-2-13h-2v-2H72c-4 0-8 0-12 2l-4 6 2 1-3 1-1 2-2 1-4-1v-5h2v-2l1-3v-3l8-10h2v-2l4-3 4-1 7-3Z" fill="#2F2B1E"/><path d="m179 32 1 7v100l-7 1-3-5 1-3h2l1-49-1-26v-3c1-22 1-22 6-22Z" fill="#728573"/><path d="m60 73 2 1 1 5v4h2l1 2 1 3 1 3 4 6v2h-2v-2l-4-1v3H37l-7-1v-6h2v-4l-4-2h32V73Z" fill="#75877F"/><path d="m76 10 6 1-1 2-5 1-2 1h-2l6-1h3l5-2 7 1 3 1 5 5h-5l2 1v2l-3 1-7 3H71l-5 1-2-1-8 2 3-9h2v-2l4-3 4-1 7-3Z" fill="#14100E"/><path d="M24 159c3 3 3 5 3 9l3 12H4l5-17 3 1 1-2c3-4 7-3 11-3Z" fill="#788179"/><path d="M110 10h29l7 1c0 3 0 5-2 8-3 3-5 2-9 2h-23l-2-4v-7Z" fill="#DEF0E8"/><path d="M65 107h1v10l-3 2v-2c-8 3-8 3-13 8-2 3-3 4-6 5-5 2-8 4-11 8l-1 3h-2v2l-1 2-2 1-1 4c-2 3-2 3-5 4l-3-1-6 14-2-6c6-19 20-29 36-39l10-6 2-1 6-3 1-5Z" fill="#A5AEB2"/><path d="M0 11h21l4-1c4 1 5 3 8 6v5l-9 1H0V11Z" fill="#E3F3ED"/><path d="m5 75 4 1-1 8h2v2c8 0 8 0 15-3l1 2-8 3v3c0 4 0 5-2 8-4 2-11 1-16 1V85l4-1v-8l1-1Z" fill="#7A8F8E"/><path d="M2 35h23l6 2v-2h13v6l-27 1H8l-7-2 1-5Z" fill="#BDD3CA"/><path d="M174 148c3 1 4 2 6 5v27h-10l1-3v-9l1-9v-3l2-8Z" fill="#C9C7B9"/><path d="m81 59 1 8v6h-2v4h-2l-1 2-1-6v-2l-2-1v-2h-2v-2h-9l4-7c4-2 9-2 14 0Z" fill="#483526"/><path d="M83 133c3 3 5 6 5 10 0 5-2 9-4 14l-2 8h-1l-1-15c0-5 0-5-2-8l-4-1c2-5 3-8 9-8Z" fill="#6F766A"/><path d="M0 158h12l-1 3-7 19H0v-22Z" fill="#5D6C5D"/><path d="m0 134 27 2c-5 6-5 6-8 7l-2-1H8l-8-1v-7Z" fill="#4D5A3E"/><path d="M110 10h29l7 1v6l-2 1v-5h-32l1 7 30-1-1 2h-30c-3-8-3-8-2-11Z" fill="#AEC5B5"/><path d="m28 86 4 2v4h-2v6l35 1v2H30l-2-4v-8l-6-1-3 7h-1c0-6 0-6 2-9h8Z" fill="#3E534C"/><path d="M42 91h8c2 5 2 5 0 7l-19-1v-5c4-2 7-1 11-1Z" fill="#7F9994"/><path d="M160 99h3l4 1v5c-5 3-10 3-15 2-2-2-2-2-2-6 3-2 6-2 10-2Z" fill="#CBD5C9"/><path d="m176 102 4 1v14l-1 16h-2l-1-9v-22Z" fill="#7F9385"/><path d="M0 11h21l4-1c4 1 5 3 8 6v5l-9 1H0v-1h30v-7L0 13v-2Z" fill="#BACEC1"/><path d="m100 55 2 1v3h-2v2h-4l1 4h-3v2l-8-4v-3l3-1 3-3 8-1Z" fill="#61442C"/><path d="m44 42-1 4h-8l-5 1-4-2v-1H5v-2h39Z" fill="#687E71"/><path d="M156 88c7 0 7 0 11 3l1 2-5 1-1 5h-6V88Z" fill="#334537"/><path d="M11 36h15v4H4c1-4 3-4 7-4Z" fill="#D7EBE6"/><path d="M0 158h12c-2 5-2 5-4 6l-6 1v6l2 1H0v-14Z" fill="#66694C"/><path d="M37 119h7l3 1h3l-12 8-2-1v-7l1-1Z" fill="#404C40"/><path d="M82 161h1v7c0 3 1 3 3 5l-1 7h-6c0-7 1-13 3-19Z" fill="#3C3A31"/><path d="m105 49 1 4h-4l-15 1v-3c6-2 11-3 18-2Z" fill="#544126"/><path d="m66 165 9 1v5l-9 1v-2l-5 1v-3l5-1v-2Z" fill="#B1AFA0"/><path d="m0 134 15 3-1 2-14 1v-6Z" fill="#607255"/><path d="M96 134c5 4 5 4 6 7l-2 8c-5-5-5-5-5-9l1-6Z" fill="#706F5E"/><path d="M54 60h1v2l3 17-4-2-2-5v-2l-1-3-1-2v-2h4v-3Z" fill="#7D706C"/><path d="M77 53v3l-13 1v2h-3l1-4c5-3 9-3 15-2Z" fill="#473522"/><path d="M92 0h41v1l-10 1h-3l-16-1v3h-2V2L92 1V0Z" fill="#2E3C28"/><path d="M174 139h6v14l-4-6-1-3-1-5Z" fill="#353527"/><path d="M113 21h20v1l-14 1-1 3h10v1h-9c-3 0-3 0-5-2l-1-4Z" fill="#5B745E"/><path d="M97 89v2c-7 2-13 2-20 2 6-5 13-4 20-4Z" fill="#693E25"/><path d="m13 148 3 1-4 9H0v-2l10-1 3-7Z" fill="#424B3B"/><path d="M54 40h1l-2 20-3-9 1-3 1-3-2-3h3l1-2Z" fill="#4A4A46"/><path d="M33 36h11v4H33v-4Z" fill="#D8EBE5"/><path d="m9 163-1 6-6 2v-6c3-2 3-2 7-2Z" fill="#484C38"/><path d="m45 24 5 1-1 8-6 1 2-10Z" fill="#83847C"/><path d="M156 101h9v4h-11l2-4Z" fill="#F1F5EF"/><path d="M81 133h2c3 3 5 6 5 11l-1 6h-1l-1-4-1-3v-6h-2l-1 2v-6Z" fill="#48504A"/><path d="m102 142 4 3v2l-1 1c-2 2-3 4-3 7-2-4-2-7-2-11l2-2Z" fill="#8D8A79"/><path d="M10 97h6v2c-3 2-6 1-9 1H0v-2l10-1Z" fill="#5A706F"/><path d="m157 90 4 1v7h-4v-8Z" fill="#191F18"/><path d="m98 121-2 6c-4 3-6 2-10 2l-1-2 2-1c6-1 6-1 11-5Z" fill="#807967"/><path d="m8 167 1 9-1 2v2l-4-1 1-5 1-3 2-4Z" fill="#818B88"/><path d="M65 107h1v10l-3 2c0-5 0-8 2-12Z" fill="#AFB6BD"/><path d="M71 114c3 1 6 3 8 6l2 2 2 1c-4 0-5-1-8-3l-2-2-2-2v-2Z" fill="#6E5B44"/><path d="m0 135 6 1v3H0v-4Z" fill="#798D70"/><path d="M66 101c3 3 3 6 3 10h-2c-2-3-2-4-2-7l1-3Z" fill="#8B8682"/><path d="M96 57h2l-2 4h-6c3-4 3-4 6-4Z" fill="#3C2719"/><path d="M110 100h2v6l-3 3 1-9Z" fill="#645840"/><path d="M48 19h5l-3 5h-3l1-5Z" fill="#3C4736"/><path d="M49 30h1v7h-2l-1 4v-8h2v-3Z" fill="#5E5F56"/><path d="m75 171 3 2v7h-2l-1-9Z" fill="#C4C3AF"/><path d="M8 165v4l-5 1c1-5 1-5 5-5Z" fill="#252A22"/><path d="m4 175 1 4-5 1v-3l4-2Z" fill="#34423D"/><path d="m54 49 3 1v4h-4l1-5Z" fill="#888385"/><path d="M180 142v38L0 179v-79l16-1 1-5c0-5 0-5 3-8h8l4 2v4h-2v6l35 1c0 11 0 11-2 14l-2 1-2 2-3 1-2 2-26 17c-14 11-19 27-23 43h74v-6l1-4v-2l1-2v-2l4-10 2-12-4-6v-2l-4-1 4-5 5 1h3c3 1 3 2 5 5v5c0 5 1 7 4 11 5 8 8 21 8 31h72v-38Z" fill="#222622"/></g><defs><clipPath id="a"><path fill="#fff" d="M0 0h181v181H0z"/></clipPath></defs></svg>